<mxfile host="app.diagrams.net" modified="2021-09-12T13:51:26.624Z" agent="5.0 (Windows NT 10.0; Win64; x64) AppleWebKit/537.36 (KHTML, like Gecko) Chrome/93.0.4577.63 Safari/537.36" etag="lgRh1XONg0tK7nbtQR0x" version="15.0.6" type="github">
  <diagram id="FZgH1Sr0kV8n_84SCtGH" name="Page-1">
    <mxGraphModel dx="1673" dy="864" grid="1" gridSize="10" guides="1" tooltips="1" connect="1" arrows="1" fold="1" page="1" pageScale="1" pageWidth="1169" pageHeight="827" math="0" shadow="0">
      <root>
        <mxCell id="0" />
        <mxCell id="1" parent="0" />
        <mxCell id="uQb4gQyLG-8VtOOXOhDg-9" value="" style="group" vertex="1" connectable="0" parent="1">
          <mxGeometry x="190" y="250" width="800" height="550" as="geometry" />
        </mxCell>
        <mxCell id="uQb4gQyLG-8VtOOXOhDg-1" value="&lt;font&gt;&lt;b&gt;&lt;font style=&quot;font-size: 25px&quot;&gt;Inputs&lt;/font&gt;&lt;/b&gt;&lt;br&gt;&lt;br&gt;&lt;span style=&quot;font-size: 20px&quot;&gt;- Chaser&lt;/span&gt;&lt;br&gt;&lt;span style=&quot;font-size: 20px&quot;&gt;- Target&lt;/span&gt;&lt;br&gt;&lt;span style=&quot;font-size: 20px&quot;&gt;- Duration&lt;/span&gt;&lt;br&gt;&lt;/font&gt;" style="rounded=1;whiteSpace=wrap;html=1;" vertex="1" parent="uQb4gQyLG-8VtOOXOhDg-9">
          <mxGeometry width="133.33" height="150" as="geometry" />
        </mxCell>
        <mxCell id="uQb4gQyLG-8VtOOXOhDg-2" value="&lt;font&gt;&lt;b&gt;&lt;font style=&quot;font-size: 25px&quot;&gt;Outputs&lt;/font&gt;&lt;/b&gt;&lt;br&gt;&lt;br&gt;&lt;span style=&quot;font-size: 20px&quot;&gt;- Delta V&lt;/span&gt;&lt;br&gt;&lt;span style=&quot;font-size: 20px&quot;&gt;- Trajectory&lt;/span&gt;&lt;br&gt;&lt;span style=&quot;font-size: 20px&quot;&gt;- Distance reached&lt;/span&gt;&lt;br&gt;&lt;/font&gt;" style="rounded=1;whiteSpace=wrap;html=1;" vertex="1" parent="uQb4gQyLG-8VtOOXOhDg-9">
          <mxGeometry x="666.67" width="133.33" height="150" as="geometry" />
        </mxCell>
        <mxCell id="uQb4gQyLG-8VtOOXOhDg-3" value="&lt;font&gt;&lt;b&gt;&lt;font style=&quot;font-size: 25px&quot;&gt;Matlab&lt;/font&gt;&lt;/b&gt;&lt;br&gt;&lt;br&gt;&lt;span style=&quot;font-size: 20px&quot;&gt;- Retrieve coordinates from STK&lt;/span&gt;&lt;br&gt;&lt;span style=&quot;font-size: 20px&quot;&gt;- Compute Clohessy-Wiltshire matrix&lt;/span&gt;&lt;br&gt;&lt;span style=&quot;font-size: 20px&quot;&gt;- Implement Delta V&lt;/span&gt;&lt;br&gt;&lt;/font&gt;" style="rounded=1;whiteSpace=wrap;html=1;" vertex="1" parent="uQb4gQyLG-8VtOOXOhDg-9">
          <mxGeometry x="233.33" width="333.33" height="150" as="geometry" />
        </mxCell>
        <mxCell id="uQb4gQyLG-8VtOOXOhDg-4" value="&lt;font&gt;&lt;b&gt;&lt;font style=&quot;font-size: 25px&quot;&gt;System Tool Kit&lt;/font&gt;&lt;/b&gt;&lt;br&gt;&lt;br&gt;&lt;span style=&quot;font-size: 20px&quot;&gt;- Implement spacecraft&lt;/span&gt;&lt;br&gt;&lt;span style=&quot;font-size: 20px&quot;&gt;- Retrieve coordinates frames&lt;/span&gt;&lt;br&gt;&lt;span style=&quot;font-size: 20px&quot;&gt;- Simulate situation&lt;/span&gt;&lt;br&gt;&lt;/font&gt;" style="rounded=1;whiteSpace=wrap;html=1;" vertex="1" parent="uQb4gQyLG-8VtOOXOhDg-9">
          <mxGeometry x="233.33" y="240" width="333.33" height="130" as="geometry" />
        </mxCell>
        <mxCell id="uQb4gQyLG-8VtOOXOhDg-5" value="" style="shape=flexArrow;endArrow=classic;html=1;" edge="1" parent="uQb4gQyLG-8VtOOXOhDg-9">
          <mxGeometry width="50" height="50" relative="1" as="geometry">
            <mxPoint x="356.0033333333334" y="230.66333333333336" as="sourcePoint" />
            <mxPoint x="356.0033333333334" y="163.99666666666667" as="targetPoint" />
          </mxGeometry>
        </mxCell>
        <mxCell id="uQb4gQyLG-8VtOOXOhDg-6" value="" style="shape=flexArrow;endArrow=classic;html=1;" edge="1" parent="uQb4gQyLG-8VtOOXOhDg-9">
          <mxGeometry width="50" height="50" relative="1" as="geometry">
            <mxPoint x="431.0033333333334" y="163.9966666666665" as="sourcePoint" />
            <mxPoint x="431.0033333333334" y="230.66333333333313" as="targetPoint" />
          </mxGeometry>
        </mxCell>
        <mxCell id="uQb4gQyLG-8VtOOXOhDg-7" value="" style="shape=flexArrow;endArrow=classic;html=1;" edge="1" parent="uQb4gQyLG-8VtOOXOhDg-9">
          <mxGeometry width="50" height="50" relative="1" as="geometry">
            <mxPoint x="150" y="116.66666666666649" as="sourcePoint" />
            <mxPoint x="216.66666666666669" y="116.66666666666667" as="targetPoint" />
          </mxGeometry>
        </mxCell>
        <mxCell id="uQb4gQyLG-8VtOOXOhDg-8" value="" style="shape=flexArrow;endArrow=classic;html=1;" edge="1" parent="uQb4gQyLG-8VtOOXOhDg-9">
          <mxGeometry width="50" height="50" relative="1" as="geometry">
            <mxPoint x="583.3333333333334" y="112.00833333333317" as="sourcePoint" />
            <mxPoint x="650" y="112.00833333333317" as="targetPoint" />
          </mxGeometry>
        </mxCell>
        <mxCell id="uQb4gQyLG-8VtOOXOhDg-10" value="" style="shape=flexArrow;endArrow=classic;html=1;endWidth=13.564013840830448;endSize=8.788235294117648;width=16.47058823529412;startArrow=none;" edge="1" parent="1" source="uQb4gQyLG-8VtOOXOhDg-11">
          <mxGeometry width="50" height="50" relative="1" as="geometry">
            <mxPoint x="920" y="240" as="sourcePoint" />
            <mxPoint x="260" y="240" as="targetPoint" />
            <Array as="points">
              <mxPoint x="260" y="160" />
            </Array>
          </mxGeometry>
        </mxCell>
        <mxCell id="uQb4gQyLG-8VtOOXOhDg-11" value="&lt;font&gt;&lt;b&gt;&lt;font style=&quot;font-size: 25px&quot;&gt;Genetic Algorithm&lt;/font&gt;&lt;/b&gt;&lt;br&gt;&lt;br&gt;&lt;span style=&quot;font-size: 20px&quot;&gt;- Iteration over Inputs&lt;/span&gt;&lt;br&gt;&lt;span style=&quot;font-size: 20px&quot;&gt;- Compare outputs&lt;/span&gt;&lt;br&gt;&lt;span style=&quot;font-size: 20px&quot;&gt;- Selection over generations&lt;/span&gt;&lt;br&gt;&lt;/font&gt;" style="rounded=1;whiteSpace=wrap;html=1;" vertex="1" parent="1">
          <mxGeometry x="420" y="100" width="340" height="120" as="geometry" />
        </mxCell>
        <mxCell id="uQb4gQyLG-8VtOOXOhDg-13" value="" style="shape=flexArrow;endArrow=none;html=1;endWidth=13.564013840830448;endSize=8.788235294117648;width=16.47058823529412;" edge="1" parent="1" target="uQb4gQyLG-8VtOOXOhDg-11">
          <mxGeometry width="50" height="50" relative="1" as="geometry">
            <mxPoint x="919.9999999999995" y="240" as="sourcePoint" />
            <mxPoint x="260" y="240" as="targetPoint" />
            <Array as="points">
              <mxPoint x="920" y="160" />
            </Array>
          </mxGeometry>
        </mxCell>
      </root>
    </mxGraphModel>
  </diagram>
</mxfile>
